<mxfile host="app.diagrams.net" agent="Mozilla/5.0 (Windows NT 10.0; Win64; x64) AppleWebKit/537.36 (KHTML, like Gecko) Chrome/130.0.0.0 Safari/537.36" version="24.8.1">
  <diagram name="PÃ¡gina-1" id="vJsaOPvArFayym40A8iR">
    <mxGraphModel dx="1290" dy="557" grid="1" gridSize="10" guides="1" tooltips="1" connect="1" arrows="1" fold="1" page="1" pageScale="1" pageWidth="827" pageHeight="1169" math="0" shadow="0">
      <root>
        <mxCell id="0" />
        <mxCell id="1" parent="0" />
        <mxCell id="SMgSuaXkYoLydavcJ1RQ-1" value="USUARIO" style="rounded=0;whiteSpace=wrap;html=1;" vertex="1" parent="1">
          <mxGeometry x="70" y="250" width="120" height="60" as="geometry" />
        </mxCell>
        <mxCell id="SMgSuaXkYoLydavcJ1RQ-2" value="LOGRADOURO" style="rounded=0;whiteSpace=wrap;html=1;" vertex="1" parent="1">
          <mxGeometry x="230" y="250" width="120" height="60" as="geometry" />
        </mxCell>
        <mxCell id="SMgSuaXkYoLydavcJ1RQ-3" value="CAMPO" style="rounded=0;whiteSpace=wrap;html=1;" vertex="1" parent="1">
          <mxGeometry x="390" y="250" width="120" height="60" as="geometry" />
        </mxCell>
        <mxCell id="SMgSuaXkYoLydavcJ1RQ-4" value="CAMPO_COMPONENTE" style="rounded=0;whiteSpace=wrap;html=1;" vertex="1" parent="1">
          <mxGeometry x="375" y="160" width="150" height="60" as="geometry" />
        </mxCell>
        <mxCell id="SMgSuaXkYoLydavcJ1RQ-5" value="ALIMENTO" style="rounded=0;whiteSpace=wrap;html=1;" vertex="1" parent="1">
          <mxGeometry x="390" y="340" width="120" height="60" as="geometry" />
        </mxCell>
        <mxCell id="SMgSuaXkYoLydavcJ1RQ-6" value="COMPONENTE" style="rounded=0;whiteSpace=wrap;html=1;" vertex="1" parent="1">
          <mxGeometry x="560" y="160" width="120" height="60" as="geometry" />
        </mxCell>
        <mxCell id="SMgSuaXkYoLydavcJ1RQ-7" value="AGUA" style="rounded=0;whiteSpace=wrap;html=1;" vertex="1" parent="1">
          <mxGeometry x="553" y="250" width="120" height="60" as="geometry" />
        </mxCell>
        <mxCell id="SMgSuaXkYoLydavcJ1RQ-8" value="VENDER" style="rounded=0;whiteSpace=wrap;html=1;" vertex="1" parent="1">
          <mxGeometry x="70" y="340" width="120" height="60" as="geometry" />
        </mxCell>
        <mxCell id="SMgSuaXkYoLydavcJ1RQ-9" value="GERAR_INFORMACOES_COMPRA" style="rounded=0;whiteSpace=wrap;html=1;" vertex="1" parent="1">
          <mxGeometry x="25" y="430" width="210" height="70" as="geometry" />
        </mxCell>
        <mxCell id="SMgSuaXkYoLydavcJ1RQ-11" value="" style="endArrow=none;html=1;rounded=0;exitX=1;exitY=0.5;exitDx=0;exitDy=0;entryX=0;entryY=0.5;entryDx=0;entryDy=0;" edge="1" parent="1" source="SMgSuaXkYoLydavcJ1RQ-1" target="SMgSuaXkYoLydavcJ1RQ-2">
          <mxGeometry width="50" height="50" relative="1" as="geometry">
            <mxPoint x="390" y="320" as="sourcePoint" />
            <mxPoint x="440" y="270" as="targetPoint" />
          </mxGeometry>
        </mxCell>
        <mxCell id="SMgSuaXkYoLydavcJ1RQ-12" value="" style="endArrow=none;html=1;rounded=0;exitX=1;exitY=0.5;exitDx=0;exitDy=0;entryX=0;entryY=0.5;entryDx=0;entryDy=0;" edge="1" parent="1" source="SMgSuaXkYoLydavcJ1RQ-2" target="SMgSuaXkYoLydavcJ1RQ-3">
          <mxGeometry width="50" height="50" relative="1" as="geometry">
            <mxPoint x="390" y="320" as="sourcePoint" />
            <mxPoint x="440" y="270" as="targetPoint" />
          </mxGeometry>
        </mxCell>
        <mxCell id="SMgSuaXkYoLydavcJ1RQ-13" value="" style="endArrow=none;html=1;rounded=0;exitX=0.5;exitY=1;exitDx=0;exitDy=0;entryX=0.5;entryY=0;entryDx=0;entryDy=0;" edge="1" parent="1" source="SMgSuaXkYoLydavcJ1RQ-4" target="SMgSuaXkYoLydavcJ1RQ-3">
          <mxGeometry width="50" height="50" relative="1" as="geometry">
            <mxPoint x="390" y="320" as="sourcePoint" />
            <mxPoint x="440" y="270" as="targetPoint" />
          </mxGeometry>
        </mxCell>
        <mxCell id="SMgSuaXkYoLydavcJ1RQ-14" value="" style="endArrow=none;html=1;rounded=0;exitX=0.5;exitY=0;exitDx=0;exitDy=0;entryX=0.5;entryY=1;entryDx=0;entryDy=0;" edge="1" parent="1" source="SMgSuaXkYoLydavcJ1RQ-5" target="SMgSuaXkYoLydavcJ1RQ-3">
          <mxGeometry width="50" height="50" relative="1" as="geometry">
            <mxPoint x="390" y="320" as="sourcePoint" />
            <mxPoint x="440" y="270" as="targetPoint" />
          </mxGeometry>
        </mxCell>
        <mxCell id="SMgSuaXkYoLydavcJ1RQ-15" value="" style="endArrow=none;html=1;rounded=0;entryX=0;entryY=0.5;entryDx=0;entryDy=0;exitX=1;exitY=0.5;exitDx=0;exitDy=0;" edge="1" parent="1" source="SMgSuaXkYoLydavcJ1RQ-4" target="SMgSuaXkYoLydavcJ1RQ-6">
          <mxGeometry width="50" height="50" relative="1" as="geometry">
            <mxPoint x="390" y="320" as="sourcePoint" />
            <mxPoint x="440" y="270" as="targetPoint" />
          </mxGeometry>
        </mxCell>
        <mxCell id="SMgSuaXkYoLydavcJ1RQ-16" value="" style="endArrow=none;html=1;rounded=0;entryX=0.437;entryY=1.003;entryDx=0;entryDy=0;entryPerimeter=0;exitX=0.5;exitY=0;exitDx=0;exitDy=0;" edge="1" parent="1" source="SMgSuaXkYoLydavcJ1RQ-7" target="SMgSuaXkYoLydavcJ1RQ-6">
          <mxGeometry width="50" height="50" relative="1" as="geometry">
            <mxPoint x="390" y="320" as="sourcePoint" />
            <mxPoint x="440" y="270" as="targetPoint" />
          </mxGeometry>
        </mxCell>
        <mxCell id="SMgSuaXkYoLydavcJ1RQ-17" value="" style="endArrow=none;html=1;rounded=0;entryX=0.5;entryY=1;entryDx=0;entryDy=0;exitX=0.5;exitY=0;exitDx=0;exitDy=0;" edge="1" parent="1" source="SMgSuaXkYoLydavcJ1RQ-8" target="SMgSuaXkYoLydavcJ1RQ-1">
          <mxGeometry width="50" height="50" relative="1" as="geometry">
            <mxPoint x="390" y="320" as="sourcePoint" />
            <mxPoint x="440" y="270" as="targetPoint" />
          </mxGeometry>
        </mxCell>
        <mxCell id="SMgSuaXkYoLydavcJ1RQ-19" value="" style="endArrow=none;html=1;rounded=0;exitX=0.5;exitY=1;exitDx=0;exitDy=0;entryX=0.5;entryY=0;entryDx=0;entryDy=0;" edge="1" parent="1" source="SMgSuaXkYoLydavcJ1RQ-8" target="SMgSuaXkYoLydavcJ1RQ-9">
          <mxGeometry width="50" height="50" relative="1" as="geometry">
            <mxPoint x="390" y="320" as="sourcePoint" />
            <mxPoint x="440" y="270" as="targetPoint" />
          </mxGeometry>
        </mxCell>
        <mxCell id="SMgSuaXkYoLydavcJ1RQ-20" value="USUARIO" style="rounded=0;whiteSpace=wrap;html=1;" vertex="1" parent="1">
          <mxGeometry x="80" y="680" width="190" height="30" as="geometry" />
        </mxCell>
        <mxCell id="SMgSuaXkYoLydavcJ1RQ-21" value="- id_usuario: int&lt;div&gt;- documento: int&lt;/div&gt;&lt;div&gt;- tipo_documento: String&lt;/div&gt;" style="rounded=0;whiteSpace=wrap;html=1;" vertex="1" parent="1">
          <mxGeometry x="80" y="710" width="190" height="100" as="geometry" />
        </mxCell>
        <mxCell id="SMgSuaXkYoLydavcJ1RQ-22" value="" style="rounded=0;whiteSpace=wrap;html=1;" vertex="1" parent="1">
          <mxGeometry x="80" y="810" width="190" height="100" as="geometry" />
        </mxCell>
        <mxCell id="SMgSuaXkYoLydavcJ1RQ-23" value="LOGRADOURO" style="rounded=0;whiteSpace=wrap;html=1;" vertex="1" parent="1">
          <mxGeometry x="370" y="680" width="190" height="30" as="geometry" />
        </mxCell>
        <mxCell id="SMgSuaXkYoLydavcJ1RQ-24" value="" style="rounded=0;whiteSpace=wrap;html=1;" vertex="1" parent="1">
          <mxGeometry x="370" y="710" width="190" height="100" as="geometry" />
        </mxCell>
        <mxCell id="SMgSuaXkYoLydavcJ1RQ-25" value="" style="rounded=0;whiteSpace=wrap;html=1;" vertex="1" parent="1">
          <mxGeometry x="370" y="810" width="190" height="100" as="geometry" />
        </mxCell>
      </root>
    </mxGraphModel>
  </diagram>
</mxfile>
